<?xml version="1.0" encoding="utf-8"?>
<!-- Generator: Adobe Illustrator 19.0.0, SVG Export Plug-In . SVG Version: 6.00 Build 0)  -->
<svg version="1.1" id="Layer_1" xmlns="http://www.w3.org/2000/svg" xmlns:xlink="http://www.w3.org/1999/xlink" x="0px" y="0px"
	 viewBox="0 0 72 72" style="enable-background:new 0 0 72 72;" xml:space="preserve">
<style type="text/css">
	.st0{fill:#FFFFFF;}
</style>
<path id="facebook-circle-icon" class="st0" d="M36,0C16.1,0,0,16.1,0,36c0,19.9,16.1,36,36,36c19.9,0,36-16.1,36-36
	C72,16.1,55.9,0,36,0z M46.7,21.2c0,0-3.6,0-5,0c-1.8,0-2.1,0.7-2.1,2.6c0,1.5,0,4.4,0,4.4h7.2L46,36h-6.5v23.3h-9.3V36.1h-4.8v-7.9
	h4.8c0,0,0-1.1,0-6.2c0-5.8,3.1-8.9,10-8.9c1.1,0,6.4,0,6.4,0V21.2L46.7,21.2z"/>
</svg>
