<?xml version="1.0" encoding="utf-8"?>
<!-- Generator: Adobe Illustrator 19.0.0, SVG Export Plug-In . SVG Version: 6.00 Build 0)  -->
<svg version="1.1" id="Layer_1" xmlns="http://www.w3.org/2000/svg" xmlns:xlink="http://www.w3.org/1999/xlink" x="0px" y="0px"
	 viewBox="0 0 166 22.7" style="enable-background:new 0 0 166 22.7;" xml:space="preserve">
<style type="text/css">
	.st0{fill:#F3747B;}
</style>
<g id="XMLID_3_">
	<path id="XMLID_55_" class="st0" d="M5.7,22.7c-3.8,0-5.7-1-5.7-3.1c0-0.5,0.2-1,0.5-1.4c0.3-0.4,0.7-0.6,1.2-0.6
		c0.9,0,1.4,0.4,1.7,1.2c-0.3,0.4-0.5,0.7-0.5,1.2c0,0.7,0.2,1.3,0.7,1.7c0.5,0.4,1.2,0.6,2.3,0.6c1,0,1.9-0.3,2.7-0.8
		c0.8-0.5,1.1-1.2,1.1-1.9s-0.3-1.3-0.8-1.6c-0.5-0.4-1.4-0.7-2.5-1.1l-3.6-1.1c-1.7-0.5-2.5-1.7-2.5-3.7c0-1.2,0.5-2.3,1.4-3.1
		s2.2-1.2,3.8-1.2c1.5,0,2.8,0.3,3.6,0.8c0.9,0.5,1.3,1.2,1.3,2.1c0,0.5-0.1,0.9-0.4,1.2c-0.3,0.3-0.7,0.5-1.1,0.5
		c-0.4,0-0.8-0.1-1-0.3c-0.3-0.2-0.4-0.5-0.4-0.9C7.8,10.8,8,10.4,8,9.9c0-1.2-0.8-1.8-2.5-1.8c-1.2,0-2.2,0.2-2.9,0.7
		c-0.7,0.5-1.1,1-1.1,1.7c0,0.6,0.1,1.1,0.4,1.4c0.3,0.3,0.7,0.5,1.5,0.8l4.5,1.4c1.1,0.3,1.8,0.8,2.3,1.5s0.7,1.6,0.7,2.7
		c0,1.1-0.4,2.2-1.3,3.1S7.4,22.7,5.7,22.7z"/>
	<path id="XMLID_57_" class="st0" d="M15.3,20.6c-1.4-1.4-2.1-3.2-2.1-5.5c0-2.2,0.7-4,2.1-5.5c1.3-1.4,3.1-2,5.2-2
		c2.1,0,3.8,0.7,5.2,2.1c1.4,1.4,2.1,3.2,2.1,5.4s-0.7,4-2.1,5.4c-1.4,1.4-3.1,2.1-5.1,2.1C18.4,22.7,16.7,22,15.3,20.6z M24.6,16.5
		v-2.8c0-1.7-0.3-3-1-4c-0.7-1-1.7-1.5-3.1-1.5S18,8.8,17.3,9.7c-0.7,1-1,2.3-1,4v2.8c0,1.7,0.4,3,1,4c0.7,1,1.7,1.5,3.1,1.5
		s2.4-0.5,3.1-1.5C24.3,19.5,24.6,18.2,24.6,16.5z"/>
	<path id="XMLID_60_" class="st0" d="M39.5,12.1c0.5-0.4,0.8-0.9,0.8-1.5c0-0.7-0.3-1.2-0.8-1.6c-0.6-0.4-1.3-0.7-2.2-0.7
		c-1.3,0-2.4,0.5-3.1,1.4c-0.7,1-1.1,2.3-1.1,4v2.8c0,1.7,0.4,3,1.1,4c0.7,1,1.7,1.5,3,1.5c1.3,0,2.5-0.4,3.4-1.1
		c0.9-0.7,1.5-1.7,1.8-2.8H43c-0.3,1.4-0.9,2.5-1.9,3.3c-1,0.8-2.3,1.2-3.8,1.2c-2.1,0-3.8-0.7-5.2-2.1c-1.4-1.4-2.1-3.2-2.1-5.5
		c0-2.3,0.7-4.1,2.2-5.4c1.4-1.3,3.1-2,5.1-2c1.6,0,3,0.4,4.1,1.2s1.7,1.8,1.7,3.1c0,0.6-0.2,1.1-0.5,1.4c-0.3,0.3-0.7,0.5-1.2,0.5
		c-0.5,0-0.9-0.2-1.3-0.5C39.7,13,39.5,12.6,39.5,12.1z"/>
	<path id="XMLID_62_" class="st0" d="M44.8,8.5V7.9h4.8v13.6l2,0.3v0.6h-6.7v-0.6l2-0.3V8.8L44.8,8.5z M45.9,2.8
		c0-0.5,0.2-1,0.5-1.3s0.8-0.5,1.3-0.5c0.5,0,1,0.2,1.3,0.5s0.5,0.8,0.5,1.3c0,0.5-0.2,1-0.5,1.3c-0.4,0.4-0.8,0.5-1.3,0.5
		s-1-0.2-1.3-0.5C46.1,3.7,45.9,3.3,45.9,2.8z"/>
	<path id="XMLID_65_" class="st0" d="M62.4,19.6c-0.5,1-1.2,1.7-2.1,2.2c-0.9,0.5-2,0.8-3.1,0.8s-2.1-0.3-2.9-0.9
		c-0.7-0.6-1.1-1.5-1.1-2.6c0-1.1,0.2-2,0.7-2.6c0.5-0.6,1.1-1.1,1.8-1.5c1.4-0.7,3.2-1,5.6-1h1v-2.7c0-2.1-1-3.1-2.9-3.1
		c-0.8,0-1.5,0.2-2.1,0.6c-0.5,0.4-0.8,0.8-0.8,1.4c0,0.5,0.3,0.9,0.8,1c0,0.5-0.2,0.9-0.5,1.2c-0.4,0.4-0.8,0.5-1.3,0.5
		s-0.9-0.2-1.2-0.5s-0.5-0.8-0.5-1.3c0-0.5,0.2-1,0.5-1.4c0.3-0.4,0.7-0.8,1.2-1.1c1-0.7,2.4-1,3.9-1c3.8,0,5.7,1.4,5.7,4.3v8.6
		c0,0.8,0.3,1.3,1,1.3s1-0.4,1-1.2h0.6c0,0.7-0.2,1.2-0.6,1.5c-0.4,0.4-1,0.6-1.8,0.6s-1.5-0.3-2.1-0.8
		C62.7,21.4,62.4,20.7,62.4,19.6z M62.4,17.6v-2.9h-1c-1.5,0-2.7,0.3-3.7,1c-1,0.7-1.5,1.7-1.5,3.2c0,0.7,0.2,1.3,0.6,1.8
		c0.4,0.4,1,0.6,1.8,0.6c0.8,0,1.6-0.3,2.4-1S62.2,18.8,62.4,17.6z"/>
	<path id="XMLID_68_" class="st0" d="M68.2,0.6V0h4.9v21.6l2,0.3v0.6h-6.9v-0.6l2.1-0.3V0.8L68.2,0.6z"/>
	<path id="XMLID_70_" class="st0" d="M92.6,22.4v-0.6l1.7-0.3v-9.9c0-2-0.8-3.1-2.3-3.1c-1.5,0-2.8,0.9-4.2,2.8v10.1l1.7,0.3v0.6
		h-6.4v-0.6l2-0.3V8.7l-2-0.3V7.9h4.8v2.6c1.4-1.9,3.1-2.8,5-2.8c2.4,0,3.8,1,4.1,3c1.4-2,3.1-3,5.1-3c1.3,0,2.4,0.3,3.1,1
		c0.7,0.7,1.1,1.7,1.1,3v9.9l2,0.3v0.6h-6.4v-0.6l1.7-0.3v-9.9c0-2-0.8-3.1-2.3-3.1c-1.5,0-2.8,0.9-4.2,2.8v10.1l1.7,0.3v0.6H92.6z"
		/>
	<path id="XMLID_72_" class="st0" d="M117.3,22.1c0.7,0,1.3-0.1,1.9-0.3c0.6-0.2,1.1-0.5,1.6-0.8c1-0.7,1.6-1.7,1.8-2.8h0.6
		c-0.3,1.4-0.9,2.5-2,3.3c-1.1,0.8-2.4,1.2-3.9,1.2c-2.1,0-3.9-0.7-5.3-2.1c-1.4-1.4-2.1-3.2-2.1-5.5c0-2.2,0.7-4,2.1-5.4
		c1.3-1.4,3.1-2.1,5.1-2.1c1.8,0,3.3,0.6,4.4,1.7c1.1,1.2,1.7,2.7,1.8,4.4H113v2.8c0,1.7,0.4,3,1.1,4
		C114.9,21.6,115.9,22.1,117.3,22.1z M117.1,8.3c-1.3,0-2.2,0.4-2.9,1.3c-0.7,0.9-1.1,2-1.2,3.5h7.2C120.2,9.9,119.2,8.3,117.1,8.3z
		"/>
	<path id="XMLID_75_" class="st0" d="M137,22.4v-2.9c-1,2.1-2.6,3.2-4.7,3.2c-2,0-3.6-0.7-4.8-2.1c-1.2-1.4-1.8-3.2-1.8-5.5
		s0.6-4.1,1.8-5.5c1.2-1.4,2.9-2,4.9-2s3.6,1.1,4.6,3.2v-10l-2-0.3V0h4.8v21.6l2,0.3v0.6H137z M128.6,13.7v2.8
		c0,3.6,1.3,5.4,3.9,5.4c1.2,0,2.3-0.5,3.1-1.5s1.3-2.2,1.3-3.7v-3.2c0-1.4-0.5-2.7-1.3-3.7s-1.9-1.5-3.1-1.5
		C129.9,8.3,128.6,10.1,128.6,13.7z"/>
	<path id="XMLID_78_" class="st0" d="M143,8.5V7.9h4.8v13.6l2,0.3v0.6H143v-0.6l2-0.3V8.8L143,8.5z M144.1,2.8c0-0.5,0.2-1,0.5-1.3
		s0.8-0.5,1.3-0.5c0.5,0,1,0.2,1.3,0.5s0.5,0.8,0.5,1.3c0,0.5-0.2,1-0.5,1.3c-0.4,0.4-0.8,0.5-1.3,0.5s-1-0.2-1.3-0.5
		C144.3,3.7,144.1,3.3,144.1,2.8z"/>
	<path id="XMLID_81_" class="st0" d="M160.6,19.6c-0.5,1-1.2,1.7-2.1,2.2c-0.9,0.5-2,0.8-3.1,0.8s-2.1-0.3-2.9-0.9
		c-0.7-0.6-1.1-1.5-1.1-2.6c0-1.1,0.2-2,0.7-2.6c0.5-0.6,1.1-1.1,1.8-1.5c1.4-0.7,3.2-1,5.6-1h1v-2.7c0-2.1-1-3.1-2.9-3.1
		c-0.8,0-1.5,0.2-2.1,0.6c-0.5,0.4-0.8,0.8-0.8,1.4c0,0.5,0.3,0.9,0.8,1c0,0.5-0.2,0.9-0.5,1.2c-0.4,0.4-0.8,0.5-1.3,0.5
		s-0.9-0.2-1.2-0.5s-0.5-0.8-0.5-1.3c0-0.5,0.2-1,0.5-1.4c0.3-0.4,0.7-0.8,1.2-1.1c1-0.7,2.4-1,3.9-1c3.8,0,5.7,1.4,5.7,4.3v8.6
		c0,0.8,0.3,1.3,1,1.3s1-0.4,1-1.2h0.6c0,0.7-0.2,1.2-0.6,1.5c-0.4,0.4-1,0.6-1.8,0.6s-1.5-0.3-2.1-0.8
		C160.9,21.4,160.6,20.7,160.6,19.6z M160.6,17.6v-2.9h-1c-1.5,0-2.7,0.3-3.7,1c-1,0.7-1.5,1.7-1.5,3.2c0,0.7,0.2,1.3,0.6,1.8
		c0.4,0.4,1,0.6,1.8,0.6c0.8,0,1.6-0.3,2.4-1S160.5,18.8,160.6,17.6z"/>
</g>
</svg>
