<?xml version="1.0" encoding="utf-8"?>
<!-- Generator: Adobe Illustrator 19.0.0, SVG Export Plug-In . SVG Version: 6.00 Build 0)  -->
<svg version="1.1" id="Layer_1" xmlns="http://www.w3.org/2000/svg" xmlns:xlink="http://www.w3.org/1999/xlink" x="0px" y="0px"
	 viewBox="0 0 72 72" style="enable-background:new 0 0 72 72;" xml:space="preserve">
<style type="text/css">
	.st0{fill:#FFFFFF;}
</style>
<path id="twitter-4-icon" class="st0" d="M36,0C16.1,0,0,16.1,0,36c0,19.9,16.1,36,36,36c19.9,0,36-16.1,36-36C72,16.1,55.9,0,36,0z
	 M54.1,29.8c0.5,11.7-8.2,24.8-23.7,24.8c-4.7,0-9.1-1.4-12.8-3.8c4.4,0.5,8.9-0.7,12.4-3.5c-3.7-0.1-6.7-2.5-7.8-5.8
	c1.3,0.2,2.6,0.2,3.8-0.1c-4-0.8-6.8-4.4-6.7-8.3c1.1,0.6,2.4,1,3.8,1c-3.7-2.5-4.8-7.4-2.6-11.1c4.1,5.1,10.3,8.4,17.2,8.7
	c-1.2-5.2,2.7-10.3,8.1-10.3c2.4,0,4.6,1,6.1,2.6c1.9-0.4,3.7-1.1,5.3-2c-0.6,2-1.9,3.6-3.7,4.6c1.7-0.2,3.3-0.7,4.8-1.3
	C57.2,27.1,55.7,28.6,54.1,29.8z"/>
</svg>
