<?xml version="1.0" encoding="utf-8"?>
<!-- Generator: Adobe Illustrator 19.0.0, SVG Export Plug-In . SVG Version: 6.00 Build 0)  -->
<svg version="1.1" id="Layer_1" xmlns="http://www.w3.org/2000/svg" xmlns:xlink="http://www.w3.org/1999/xlink" x="0px" y="0px"
	 viewBox="0 0 300 350" style="enable-background:new 0 0 300 350;" xml:space="preserve">
<style type="text/css">
	.st0{fill:#2864B1;}
</style>
<g id="XMLID_2_">
	<path id="XMLID_3_" class="st0" d="M0,9.5C0,4.5,4.5,0,9.5,0H69c5.5,0,9.5,4.5,9.5,9.5v126h143V9.5c0-5,4-9.5,9.5-9.5h59.5
		c5,0,9.5,4.5,9.5,9.5v331c0,5-4.5,9.5-9.5,9.5H231c-5.5,0-9.5-4.5-9.5-9.5V209h-143v131.5c0,5-4,9.5-9.5,9.5H9.5
		c-5,0-9.5-4.5-9.5-9.5V9.5z"/>
</g>
</svg>
