<?xml version="1.0" encoding="utf-8"?>
<!-- Generator: Adobe Illustrator 19.0.0, SVG Export Plug-In . SVG Version: 6.00 Build 0)  -->
<svg version="1.1" id="Layer_1" xmlns="http://www.w3.org/2000/svg" xmlns:xlink="http://www.w3.org/1999/xlink" x="0px" y="0px"
	 viewBox="0 0 72 72" style="enable-background:new 0 0 72 72;" xml:space="preserve">
<style type="text/css">
	.st0{fill:#FFFFFF;}
</style>
<path id="instagram-circle-icon" class="st0" d="M53.1,20.3v4.4c0,0.7-0.6,1.3-1.3,1.3h-4.3c-0.7,0-1.3-0.6-1.3-1.3v-4.4
	c0-0.7,0.6-1.3,1.3-1.3h4.3C52.5,19,53.1,19.6,53.1,20.3z M36.5,42.1c3.3,0,5.9-2.6,5.9-5.9c0-3.3-2.6-5.9-5.9-5.9
	c-3.3,0-5.9,2.6-5.9,5.9C30.6,39.4,33.3,42.1,36.5,42.1z M72,36c0,19.9-16.1,36-36,36C16.1,72,0,55.9,0,36C0,16.1,16.1,0,36,0
	C55.9,0,72,16.1,72,36z M56.8,30.2H44.9c1.2,1.7,1.9,3.8,1.9,6c0,5.7-4.6,10.4-10.4,10.4c-5.7,0-10.4-4.6-10.4-10.4
	c0-2.2,0.7-4.3,1.9-6H16.3v18.2c0,4.4,3.6,8,8,8h24.5c4.4,0,8-3.6,8-8V30.2z M36.5,44.2c4.4,0,8-3.6,8-8c0-2.4-1.1-4.5-2.7-6
	c-0.6-0.5-1.2-0.9-2-1.3c-1-0.5-2.1-0.7-3.3-0.7c-1.2,0-2.3,0.3-3.3,0.7c-0.7,0.3-1.4,0.8-2,1.3c-1.7,1.5-2.7,3.6-2.7,6
	C28.5,40.6,32.1,44.2,36.5,44.2z M56.8,23.7c0-4.4-3.6-8-8-8H26.9v10.1h-1.6V15.7h-0.9c-0.1,0-0.1,0-0.2,0v10.1h-1.6v-9.9
	c-0.4,0.1-0.8,0.2-1.2,0.4v9.5h-1.6v-8.6c-2,1.5-3.4,3.8-3.4,6.5v5.3h12.8c1.9-1.9,4.5-3.1,7.4-3.1c2.9,0,5.5,1.2,7.4,3.1h12.9
	L56.8,23.7L56.8,23.7z"/>
</svg>
