<?xml version="1.0" encoding="utf-8"?>
<!-- Generator: Adobe Illustrator 19.0.0, SVG Export Plug-In . SVG Version: 6.00 Build 0)  -->
<svg version="1.1" id="Layer_1" xmlns="http://www.w3.org/2000/svg" xmlns:xlink="http://www.w3.org/1999/xlink" x="0px" y="0px"
	 viewBox="0 0 72 72" style="enable-background:new 0 0 72 72;" xml:space="preserve">
<style type="text/css">
	.st0{fill:#FFFFFF;}
</style>
<path id="pinterest-circle-icon" class="st0" d="M36,0C16.1,0,0,16.1,0,36c0,19.9,16.1,36,36,36c19.9,0,36-16.1,36-36
	C72,16.1,55.9,0,36,0z M40.7,47.8c-2.8,0-5.5-1.5-6.4-3.2c0,0-1.5,6-1.8,7.2c-1.1,4.1-4.4,8.2-4.7,8.5c-0.2,0.2-0.6,0.2-0.6-0.1
	c-0.1-0.5-0.9-5.7,0.1-9.9c0.5-2.1,3.4-14.2,3.4-14.2s-0.8-1.7-0.8-4.1c0-3.9,2.2-6.7,5-6.7c2.4,0,3.5,1.8,3.5,3.9
	c0,2.4-1.5,5.9-2.3,9.2c-0.7,2.8,1.4,5,4.1,5c4.9,0,8.3-6.3,8.3-13.9c0-5.7-3.8-10-10.8-10c-7.9,0-12.8,5.9-12.8,12.5
	c0,2.3,0.7,3.9,1.7,5.1c0.5,0.6,0.5,0.8,0.4,1.5c-0.1,0.5-0.4,1.6-0.5,2.1c-0.2,0.7-0.7,0.9-1.3,0.7c-3.6-1.5-5.3-5.5-5.3-10
	c0-7.4,6.2-16.3,18.6-16.3c9.9,0,16.5,7.2,16.5,14.9C54.8,40.2,49.1,47.8,40.7,47.8z"/>
</svg>
